<svg xmlns="http://www.w3.org/2000/svg" viewBox="0 0 350 350"><g id="Layer_2" data-name="Layer 2"><g id="Layer_1-2" data-name="Layer 1"><path d="M175,345.65A170.65,170.65,0,1,0,4.35,175,170.65,170.65,0,0,0,175,345.65Z" fill="#333"/><path d="M175,8.7a165.2,165.2,0,1,1-63.68,12.57A166.28,166.28,0,0,1,175,8.7ZM175,0A175,175,0,1,0,298.74,51.26,175,175,0,0,0,175,0Z" fill="#fff"/><path d="M58.29,122.3A36.88,36.88,0,0,1,76,126.9v10.87q-9.78-5.9-17.39-5.91a12.65,12.65,0,0,0-7.2,1.78,5.69,5.69,0,0,0-1.87,2,5.6,5.6,0,0,0-.65,2.69c0,2.38,1.61,4.57,4.83,6.59q1.35.9,10.41,5.05,7.77,3.65,11.2,8.12a17.13,17.13,0,0,1,3.42,10.74A16.39,16.39,0,0,1,72.93,182q-5.88,5-15.18,5a36.17,36.17,0,0,1-10.4-1.33,45.19,45.19,0,0,1-9.78-4.58v-12q10.09,8.37,19,8.38a12.29,12.29,0,0,0,7.22-1.94,6,6,0,0,0,2-2.21,6.11,6.11,0,0,0,.72-2.93c0-2.9-1.6-5.27-4.79-7.13q-4-2.18-10.24-5.18-7.45-3.39-11.13-7.91a16.11,16.11,0,0,1-3.67-10.45,15.35,15.35,0,0,1,5.91-12.66Q48.59,122.29,58.29,122.3Z" fill="#fff"/><path d="M103.13,143.18q8.15,0,12.41,3.46a11.73,11.73,0,0,1,4.29,9.63v20.65c0,1.59.65,2.4,1.94,2.4a5.85,5.85,0,0,0,2.27-.71,10.2,10.2,0,0,0,2.46-1.6v6.4Q120.65,187,115.86,187a8.78,8.78,0,0,1-4.58-1,5.47,5.47,0,0,1-2.24-3.52A21.91,21.91,0,0,1,96.28,187a11,11,0,0,1-7.82-3.07,9.71,9.71,0,0,1-3.26-7.36,11.41,11.41,0,0,1,3.26-8.61q3.26-3.15,11.37-5.51l9-2.61v-1.94q0-6.18-7.48-6.18a18.16,18.16,0,0,0-7.61,1.75,21.64,21.64,0,0,0-6.91,5.2v-10A25.68,25.68,0,0,1,103.13,143.18Zm-6.76,31.68a4.88,4.88,0,0,0,.34,2,4.74,4.74,0,0,0,1.13,1.69,4.92,4.92,0,0,0,1.67,1.07,5.06,5.06,0,0,0,2,.34c2.43,0,4.87-1.12,7.3-3.34v-11.1a51.74,51.74,0,0,0-7.28,3,13.58,13.58,0,0,0-3.88,2.84,5.25,5.25,0,0,0-1.24,3.52Z" fill="#fff"/><path d="M157,143.18a13.94,13.94,0,0,1,10.8,4.45q4,4.45,4,11.71v26.8H160.79V160.47a9.9,9.9,0,0,0-2-6.52,6.56,6.56,0,0,0-5.35-2.4,8.61,8.61,0,0,0-4.83,1.52,22.71,22.71,0,0,0-5,5v28H132.61V144H143.7v5.91a19.51,19.51,0,0,1,6.29-5.16,15.89,15.89,0,0,1,7-1.57Z" fill="#fff"/><path d="M221.47,144v7.85h-7.22a15.07,15.07,0,0,1,2.46,4,10.77,10.77,0,0,1,.68,3.93,13.52,13.52,0,0,1-3.78,9.25q-3.35,3.66-11.46,4.73a22.16,22.16,0,0,0-5.8,1.24,2.29,2.29,0,0,0-1,.87,2.22,2.22,0,0,0-.38,1.3c0,.87.59,1.54,1.74,2a28.9,28.9,0,0,0,5.58,1.34q9.52,1.53,14,4.69a9.75,9.75,0,0,1,4.48,8.34,11.49,11.49,0,0,1-5.44,10.26q-5.43,3.6-15.69,3.59-9.71,0-15.43-3.38c-3.82-2.25-5.74-5.28-5.74-9.06q0-8.05,11.06-11.1c-3.19-1.38-4.78-3.21-4.78-5.44q0-4.41,7.21-6.09v-.18a15.24,15.24,0,0,1-7.82-4.82,12.26,12.26,0,0,1-2.9-8.12,13.44,13.44,0,0,1,5.14-11q5.13-4.19,13.44-4.18Zm-32.71,50.43q0,5.65,11.28,5.65a15.74,15.74,0,0,0,7.61-1.56,4.66,4.66,0,0,0,2-1.64,4.57,4.57,0,0,0,.79-2.45c0-1.85-1.08-3.26-3.13-4.21a22.17,22.17,0,0,0-8.87-1.43,13.63,13.63,0,0,0-7,1.61,4.65,4.65,0,0,0-2.67,4Zm2.66-35.18a7.22,7.22,0,0,0,.58,3,7.14,7.14,0,0,0,1.75,2.46,7.9,7.9,0,0,0,5.65,2.18,7.52,7.52,0,0,0,5.64-2.27,7.87,7.87,0,0,0,1.67-2.66,7.79,7.79,0,0,0,.51-3.09,6.84,6.84,0,0,0-.58-2.86,6.75,6.75,0,0,0-1.73-2.36,8,8,0,0,0-5.55-2.1,7.63,7.63,0,0,0-3.06.57,7.74,7.74,0,0,0-2.59,1.71,7.34,7.34,0,0,0-2.29,5.45Z" fill="#fff"/><path d="M239,123.11v26.8h.27q5.35-6.72,12.94-6.73a14.24,14.24,0,0,1,5.92,1,13.88,13.88,0,0,1,4.95,3.4,16.24,16.24,0,0,1,4.11,11.55v27H256.07V161.28a10.6,10.6,0,0,0-2-6.75,6.73,6.73,0,0,0-5.49-2.5,8.57,8.57,0,0,0-4.76,1.45,21.36,21.36,0,0,0-4.85,4.78v27.88h-11.1v-63Z" fill="#fff"/><path d="M293,143.18q8.12,0,12.41,3.46a11.73,11.73,0,0,1,4.29,9.63v20.65c0,1.59.65,2.4,1.94,2.4a5.85,5.85,0,0,0,2.27-.71,10,10,0,0,0,2.46-1.6v6.4Q310.56,187,305.74,187a8.78,8.78,0,0,1-4.58-1,5.53,5.53,0,0,1-1.47-1.54,5.64,5.64,0,0,1-.77-2A22,22,0,0,1,286.16,187a11,11,0,0,1-7.82-3.07,9.81,9.81,0,0,1-3.26-7.36,11.41,11.41,0,0,1,3.26-8.61q3.26-3.15,11.37-5.51l9-2.61v-1.94q0-6.18-7.48-6.18a18.16,18.16,0,0,0-7.61,1.75,21.64,21.64,0,0,0-6.91,5.2v-10A25.68,25.68,0,0,1,293,143.18Zm-6.76,31.68a4.86,4.86,0,0,0,1.47,3.69,4.92,4.92,0,0,0,1.67,1.07,5.06,5.06,0,0,0,2,.34c2.43,0,4.87-1.12,7.3-3.34v-11.1a51.74,51.74,0,0,0-7.28,3,13.58,13.58,0,0,0-3.88,2.84,5.25,5.25,0,0,0-1.24,3.52Z" fill="#fff"/><path d="M243.54,209.15,254,232.88h-4.85l-2.43-5.78H236.18l-2.28,5.78h-4.81l9.78-23.73Zm-6,14.47h7.6l-4-9.39Z" fill="#fff"/><path d="M261.42,216.71a9.68,9.68,0,0,1,2.46.29,12.81,12.81,0,0,1,2.45.95v3.34a11.5,11.5,0,0,0-2.55-1.22,7.38,7.38,0,0,0-2.42-.47,2.46,2.46,0,0,0-1.41.33,1.12,1.12,0,0,0-.39.42,1.17,1.17,0,0,0-.13.55,1,1,0,0,0,.14.41,1,1,0,0,0,.29.31,16.54,16.54,0,0,0,2.32,1.3,14,14,0,0,1,3.82,2.54,4,4,0,0,1,1.09,2.8,4.37,4.37,0,0,1-.38,2,4.42,4.42,0,0,1-1.22,1.62,6.6,6.6,0,0,1-4.35,1.31,12.48,12.48,0,0,1-3.16-.38,10.3,10.3,0,0,1-2.45-.9v-3.48a11.32,11.32,0,0,0,5.15,1.7,3.35,3.35,0,0,0,1.73-.38,1.15,1.15,0,0,0,.49-.41,1.08,1.08,0,0,0,.18-.6,1.13,1.13,0,0,0-.24-.68,3.3,3.3,0,0,0-.71-.63c-.33-.21-1.31-.72-3-1.54a8.67,8.67,0,0,1-2.83-2,3.8,3.8,0,0,1-.92-2.55A4,4,0,0,1,257,218a6.92,6.92,0,0,1,4.38-1.26Z" fill="#fff"/><path d="M278.49,216.71a7.05,7.05,0,0,1,5.43,2.27,8.44,8.44,0,0,1,2.09,5.93,9,9,0,0,1-1,4.27,7.12,7.12,0,0,1-2.78,2.95,8,8,0,0,1-4.08,1.09,8.3,8.3,0,0,1-3.71-.94v8.62h-4.13V217h4.14v1A6.91,6.91,0,0,1,278.49,216.71Zm-4,12.47a5.86,5.86,0,0,0,2.92.91,4,4,0,0,0,1.74-.34,3.93,3.93,0,0,0,1.42-1.07,5.43,5.43,0,0,0,1.19-3.64,6.06,6.06,0,0,0-1.09-3.8,3.62,3.62,0,0,0-1.33-1.06,3.72,3.72,0,0,0-1.68-.31,4.22,4.22,0,0,0-1.41.24,7.73,7.73,0,0,0-1.78,1.09Z" fill="#fff"/><path d="M295.09,216.71a7.19,7.19,0,0,1,4.66,1.3,4.47,4.47,0,0,1,1.25,1.61,4.36,4.36,0,0,1,.37,2v7.72c0,.6.24.9.73.9A2.38,2.38,0,0,0,303,230a3.78,3.78,0,0,0,.92-.61v2.41a7.7,7.7,0,0,1-4,1.35,3.31,3.31,0,0,1-1.72-.38,2.1,2.1,0,0,1-.85-1.33,8.14,8.14,0,0,1-4.8,1.71,4.16,4.16,0,0,1-2.95-1.16,3.63,3.63,0,0,1-.91-1.25,3.55,3.55,0,0,1-.31-1.51,4.38,4.38,0,0,1,.26-1.76,4.45,4.45,0,0,1,1-1.5,10.45,10.45,0,0,1,4.29-2.07l3.38-1v-.73c0-1.55-.94-2.32-2.82-2.32a6.66,6.66,0,0,0-2.87.66,7.77,7.77,0,0,0-2.6,2v-3.75a9.6,9.6,0,0,1,6.17-2Zm-2.56,11.95a2,2,0,0,0,.13.76,1.73,1.73,0,0,0,.43.63,1.93,1.93,0,0,0,1.37.53,4.16,4.16,0,0,0,2.75-1.25v-4.22a18,18,0,0,0-2.74,1.09,5.22,5.22,0,0,0-1.47,1.08,2,2,0,0,0-.47,1.35Z" fill="#fff"/><path d="M310.52,212.8h.35V217h5.43v3.16h-5.43v7.32a2.51,2.51,0,0,0,.15.94,2.4,2.4,0,0,0,.5.8,2.37,2.37,0,0,0,.81.51,2.23,2.23,0,0,0,.95.15,7.18,7.18,0,0,0,3.37-1.09v3.34a10.44,10.44,0,0,1-4.25,1,5.69,5.69,0,0,1-2.24-.31,5.49,5.49,0,0,1-1.94-1.16,5.31,5.31,0,0,1-1.17-1.82,5.15,5.15,0,0,1-.33-2.13v-7.61h-2.49v-.69Z" fill="#fff"/></g></g></svg>